<?xml version="1.0" encoding="UTF-8"?><svg id="Layer_2" xmlns="http://www.w3.org/2000/svg" viewBox="0 0 30 30"><defs><style>.cls-1{fill:#fff;}</style></defs><g id="Layer_1-2"><path d="m23.824,0H6.176C2.765,0,0,2.765,0,6.176v17.647c0,3.411,2.765,6.176,6.176,6.176h17.647c3.411,0,6.176-2.765,6.176-6.176V6.176c0-3.411-2.765-6.176-6.176-6.176"/><path class="cls-1" d="m14.999,26.752c-6.48,0-11.752-5.272-11.752-11.752S8.519,3.247,14.999,3.247c6.48.001,11.752,5.273,11.752,11.753s-5.272,11.752-11.752,11.752m0-3.388c4.612,0,8.364-3.752,8.364-8.364s-3.752-8.364-8.364-8.364-8.364,3.752-8.364,8.364,3.752,8.364,8.364,8.364"/><path class="cls-1" d="m18.124,19.822h-6.248c-.938,0-1.697-.761-1.697-1.697v-6.249c0-.937.76-1.697,1.697-1.697h6.248c.938,0,1.697.761,1.697,1.697v6.249c0,.937-.76,1.697-1.697,1.697m-4.55-3.396h2.853v-2.853h-2.853v2.853Z"/></g></svg>